<svg xmlns="http://www.w3.org/2000/svg" version="1.1" xmlns:xlink="http://www.w3.org/1999/xlink" xmlns:svgjs="http://svgjs.dev/svgjs" width="1500" height="1500" viewBox="0 0 1500 1500"><rect width="1500" height="1500" fill="#ffffff"></rect><g transform="matrix(0.6666666666666666,0,0,0.6666666666666666,249.39393939393943,557.8644869521431)"><svg viewBox="0 0 396 152" data-background-color="#9da1a7" preserveAspectRatio="xMidYMid meet" height="575" width="1500" xmlns="http://www.w3.org/2000/svg" xmlns:xlink="http://www.w3.org/1999/xlink"><g id="tight-bounds" transform="matrix(1,0,0,1,0.2400000000000091,0.18590778245454942)"><svg viewBox="0 0 395.52 151.6281844350909" height="151.6281844350909" width="395.52"><g><svg viewBox="0 0 569.4859600900894 218.32049501854496" height="151.6281844350909" width="395.52"><g transform="matrix(1,0,0,1,173.96596009008937,67.46420186019972)"><svg viewBox="0 0 395.52000000000004 83.39209129814552" height="83.39209129814552" width="395.52000000000004"><g id="textblocktransform"><svg viewBox="0 0 395.52000000000004 83.39209129814552" height="83.39209129814552" width="395.52000000000004" id="textblock"><g><svg viewBox="0 0 395.52000000000004 83.39209129814552" height="83.39209129814552" width="395.52000000000004"><g transform="matrix(1,0,0,1,0,0)"><svg width="395.52000000000004" viewBox="1.45 -36.5 175.23000000000002 36.95" height="83.39209129814552" data-palette-color="#ffffff"><path d="M1.6 0.15L1.6 0.15 1.45-1.3Q4.1-1.85 4.95-2.25 5.8-2.65 5.9-3.45L5.9-3.45Q6-4.25 6.1-6.33 6.2-8.4 6.25-11.25 6.3-14.1 6.3-17.1L6.3-17.1Q6.3-22.5 6.2-25.48 6.1-28.45 6-29.63 5.9-30.8 5.9-30.8L5.9-30.8Q5.8-31.65 5.05-32.05 4.3-32.45 1.8-32.95L1.8-32.95 1.95-34.4Q3.55-34.35 5.18-34.3 6.8-34.25 8.65-34.25L8.65-34.25 17.05-34.25Q21.4-34.25 24.03-32.08 26.65-29.9 26.65-26.25L26.65-26.25Q26.65-23.95 25.23-21.88 23.8-19.8 21.4-18.6L21.4-18.6Q25.25-17.7 27.05-15.55 28.85-13.4 28.85-9.7L28.85-9.7Q28.85-7.05 27.38-4.83 25.9-2.6 23.4-1.3 20.9 0 17.85 0L17.85 0 8.65 0Q4.7 0 1.6 0.15ZM10.75-18.4L10.75-18.4Q11.2-18.5 12.2-18.6 13.2-18.7 14.4-18.78 15.6-18.85 16.63-18.93 17.65-19 18.2-19L18.2-19Q21.95-21.4 21.95-26.25L21.95-26.25Q21.95-29.15 20-30.65 18.05-32.15 14.35-32.15L14.35-32.15Q12.55-32.15 12.03-31.95 11.5-31.75 11.3-31.05L11.3-31.05Q11.2-30.5 11.05-28.63 10.9-26.75 10.83-24.08 10.75-21.4 10.75-18.4ZM16.35-1.8L16.35-1.8Q18.6-1.8 20.35-2.83 22.1-3.85 23.1-5.63 24.1-7.4 24.1-9.65L24.1-9.65Q24.1-16.9 13.9-16.9L13.9-16.9Q12.4-16.9 10.75-16.75L10.75-16.75Q10.75-13.55 10.83-10.65 10.9-7.75 11.05-5.8 11.2-3.85 11.3-3.4L11.3-3.4Q11.55-2.65 12.9-2.23 14.25-1.8 16.35-1.8ZM51.45-4.15L51.45-4.15 52.05-2.65Q50.5-1.4 48.42-0.48 46.35 0.45 43.85 0.45L43.85 0.45Q40.15 0.45 37.77-1.03 35.4-2.5 34.27-4.95 33.15-7.4 33.15-10.35L33.15-10.35Q33.15-12.75 33.82-15 34.5-17.25 35.9-19.05 37.3-20.85 39.6-21.93 41.9-23 45.1-23L45.1-23Q46.9-23 48.65-22.15 50.4-21.3 51.55-19.43 52.7-17.55 52.7-14.45L52.7-14.45 51-12.4Q50.8-12.45 50.32-12.45 49.85-12.45 49.15-12.45L49.15-12.45Q47.9-12.45 46.2-12.43 44.5-12.4 42.75-12.35 41-12.3 39.55-12.23 38.1-12.15 37.4-12.1L37.4-12.1 37.4-11.65Q37.4-6.95 39.37-4.75 41.35-2.55 44.5-2.55L44.5-2.55Q46.35-2.55 48-2.95 49.65-3.35 51.45-4.15ZM48.2-16L48.2-16Q48.2-17.7 47.52-18.68 46.85-19.65 45.87-20.1 44.9-20.55 44-20.55L44-20.55Q41.55-20.55 39.9-18.63 38.25-16.7 37.7-14.15L37.7-14.15 48.05-14.55Q48.2-15.3 48.2-16ZM73.09-2.8L73.09-2.8Q71.34-1.15 69.32-0.35 67.3 0.45 65.4 0.45L65.4 0.45Q62.9 0.45 60.8-0.83 58.7-2.1 57.45-4.63 56.2-7.15 56.2-10.85L56.2-10.85Q56.2-14.85 57.7-17.55 59.2-20.25 61.67-21.65 64.15-23.05 67.05-23.05L67.05-23.05Q68.65-23.05 70-22.68 71.34-22.3 73.05-21.3L73.05-21.3Q73.05-25.2 72.97-27.6 72.9-30 72.82-31.23 72.75-32.45 72.7-32.9 72.65-33.35 72.65-33.35L72.65-33.35 69.45-34.3 69.34-35.6Q70.25-35.6 71.47-35.73 72.7-35.85 73.9-36.08 75.09-36.3 75.95-36.5L75.95-36.5 76.9-36.05Q76.9-36.05 76.84-31.4 76.8-26.75 76.8-17.6L76.8-17.6Q76.8-11.55 76.84-8.55 76.9-5.55 76.95-4.25L76.95-4.25Q77-3.35 77.59-2.9 78.2-2.45 79.05-2.33 79.9-2.2 80.75-2.15L80.75-2.15 80.59-0.7Q79.25-0.6 77.84-0.33 76.45-0.05 75.15 0.2L75.15 0.2Q75.15 0.2 74.32-0.43 73.5-1.05 73.09-2.8ZM73.05-19.1L73.05-19.1Q71.75-19.55 70.62-19.78 69.5-20 68.34-20L68.34-20Q65.55-20 63.85-18.7 62.15-17.4 61.4-15.35 60.65-13.3 60.65-10.95L60.65-10.95Q60.65-7.45 62.22-5.08 63.8-2.7 67.15-2.7L67.15-2.7Q68.9-2.7 70.45-3.4 72-4.1 72.8-4.7L72.8-4.7Q72.84-5.5 72.9-7.68 72.95-9.85 73-12.85 73.05-15.85 73.05-19.1ZM83.04 0.15L83.04 0.15 82.89-1.3Q85.54-1.85 86.39-2.25 87.24-2.65 87.34-3.45L87.34-3.45Q87.44-4.25 87.54-6.33 87.64-8.4 87.69-11.25 87.74-14.1 87.74-17.1L87.74-17.1Q87.74-22.5 87.64-25.48 87.54-28.45 87.44-29.63 87.34-30.8 87.34-30.8L87.34-30.8Q87.24-31.65 86.49-32.05 85.74-32.45 83.24-32.95L83.24-32.95 83.39-34.4Q84.99-34.35 86.62-34.3 88.24-34.25 90.09-34.25L90.09-34.25 98.49-34.25Q102.84-34.25 105.47-32.08 108.09-29.9 108.09-26.25L108.09-26.25Q108.09-23.95 106.67-21.88 105.24-19.8 102.84-18.6L102.84-18.6Q106.69-17.7 108.49-15.55 110.29-13.4 110.29-9.7L110.29-9.7Q110.29-7.05 108.82-4.83 107.34-2.6 104.84-1.3 102.34 0 99.29 0L99.29 0 90.09 0Q86.14 0 83.04 0.15ZM92.19-18.4L92.19-18.4Q92.64-18.5 93.64-18.6 94.64-18.7 95.84-18.78 97.04-18.85 98.07-18.93 99.09-19 99.64-19L99.64-19Q103.39-21.4 103.39-26.25L103.39-26.25Q103.39-29.15 101.44-30.65 99.49-32.15 95.79-32.15L95.79-32.15Q93.99-32.15 93.47-31.95 92.94-31.75 92.74-31.05L92.74-31.05Q92.64-30.5 92.49-28.63 92.34-26.75 92.27-24.08 92.19-21.4 92.19-18.4ZM97.79-1.8L97.79-1.8Q100.04-1.8 101.79-2.83 103.54-3.85 104.54-5.63 105.54-7.4 105.54-9.65L105.54-9.65Q105.54-16.9 95.34-16.9L95.34-16.9Q93.84-16.9 92.19-16.75L92.19-16.75Q92.19-13.55 92.27-10.65 92.34-7.75 92.49-5.8 92.64-3.85 92.74-3.4L92.74-3.4Q92.99-2.65 94.34-2.23 95.69-1.8 97.79-1.8ZM121.39-17.6L121.39-17.6Q121.39-13.1 121.47-10.25 121.54-7.4 121.64-5.75 121.74-4.1 121.82-3.38 121.89-2.65 121.94-2.4L121.94-2.4Q121.99-2.15 122.64-1.9 123.29-1.65 124.12-1.5 124.94-1.35 125.44-1.3L125.44-1.3 125.29 0.15Q124.09 0.05 122.49 0.03 120.89 0 119.59 0L119.59 0Q118.34 0 116.62 0.03 114.89 0.05 113.69 0.15L113.69 0.15 113.84-1.3Q114.39-1.35 115.17-1.5 115.94-1.65 116.59-1.9 117.24-2.15 117.29-2.4L117.29-2.4Q117.29-2.4 117.34-3.13 117.39-3.85 117.47-5.63 117.54-7.4 117.59-10.53 117.64-13.65 117.64-18.5L117.64-18.5Q117.64-23.3 117.59-26.25 117.54-29.2 117.44-30.75 117.34-32.3 117.29-32.83 117.24-33.35 117.24-33.35L117.24-33.35 114.04-34.3 113.94-35.6Q114.84-35.6 116.07-35.73 117.29-35.85 118.49-36.08 119.69-36.3 120.54-36.5L120.54-36.5 121.49-36.05Q121.49-36.05 121.44-31.4 121.39-26.75 121.39-17.6ZM134.39-22.95L134.39-22.95 135.34-22.5Q135.34-21.85 135.31-20.5 135.29-19.15 135.29-17.53 135.29-15.9 135.26-14.28 135.24-12.65 135.24-11.45L135.24-11.45Q135.24-7.8 135.36-5.85 135.49-3.9 135.61-3.15 135.74-2.4 135.74-2.4L135.74-2.4Q135.79-2.15 136.46-1.9 137.14-1.65 137.96-1.5 138.79-1.35 139.29-1.3L139.29-1.3 139.14 0.15Q137.94 0.05 136.31 0.03 134.69 0 133.39 0L133.39 0Q132.14 0 130.39 0.03 128.64 0.05 127.44 0.15L127.44 0.15 127.59-1.3Q128.14-1.35 128.94-1.5 129.74-1.65 130.39-1.9 131.04-2.15 131.09-2.4L131.09-2.4Q131.09-2.4 131.19-3.15 131.29-3.9 131.39-5.85 131.49-7.8 131.49-11.45L131.49-11.45Q131.49-15.1 131.39-16.88 131.29-18.65 131.19-19.23 131.09-19.8 131.09-19.8L131.09-19.8 127.89-20.75 127.79-22.05Q128.69-22.05 129.91-22.18 131.14-22.3 132.34-22.53 133.54-22.75 134.39-22.95ZM133.24-28.15L133.24-28.15Q132.14-28.15 131.39-28.93 130.64-29.7 130.64-30.85L130.64-30.85Q130.64-31.95 131.39-32.7 132.14-33.45 133.24-33.45L133.24-33.45Q134.34-33.45 135.09-32.7 135.84-31.95 135.84-30.85L135.84-30.85Q135.84-29.7 135.09-28.93 134.34-28.15 133.24-28.15ZM149.74-23L149.74-23Q152.84-23 154.56-22.38 156.28-21.75 156.28-21.75L156.28-21.75Q156.28-20.65 156.34-19.25 156.39-17.85 156.59-16.8L156.59-16.8 155.28-16.35Q154.64-19 153.44-19.95 152.24-20.9 150.34-20.9L150.34-20.9Q148.64-20.9 147.61-19.95 146.59-19 146.59-17.7L146.59-17.7Q146.59-16.8 147.14-15.83 147.69-14.85 149.19-14L149.19-14 154.28-11.2Q155.84-10.35 156.71-9.05 157.59-7.75 157.59-5.85L157.59-5.85Q157.59-4.35 156.78-2.9 155.99-1.45 154.21-0.5 152.44 0.45 149.59 0.45L149.59 0.45Q148.09 0.45 146.16 0.15 144.24-0.15 142.09-0.8L142.09-0.8Q142.24-1.55 142.36-2.63 142.49-3.7 142.59-4.78 142.69-5.85 142.69-6.55L142.69-6.55 143.99-7Q144.44-5.25 144.89-3.98 145.34-2.7 146.31-2.05 147.28-1.4 149.28-1.4L149.28-1.4Q151.44-1.4 152.53-2.45 153.64-3.5 153.64-4.8L153.64-4.8Q153.64-5.75 153.06-6.65 152.49-7.55 151.28-8.2L151.28-8.2 145.89-11.2Q144.19-12.1 143.39-13.55 142.59-15 142.59-16.55L142.59-16.55Q142.59-18.15 143.41-19.63 144.24-21.1 145.84-22.05 147.44-23 149.74-23ZM168.83-23L168.83-23Q171.93-23 173.66-22.38 175.38-21.75 175.38-21.75L175.38-21.75Q175.38-20.65 175.43-19.25 175.48-17.85 175.68-16.8L175.68-16.8 174.38-16.35Q173.73-19 172.53-19.95 171.33-20.9 169.43-20.9L169.43-20.9Q167.73-20.9 166.71-19.95 165.68-19 165.68-17.7L165.68-17.7Q165.68-16.8 166.23-15.83 166.78-14.85 168.28-14L168.28-14 173.38-11.2Q174.93-10.35 175.81-9.05 176.68-7.75 176.68-5.85L176.68-5.85Q176.68-4.35 175.88-2.9 175.08-1.45 173.31-0.5 171.53 0.45 168.68 0.45L168.68 0.45Q167.18 0.45 165.26 0.15 163.33-0.15 161.18-0.8L161.18-0.8Q161.33-1.55 161.46-2.63 161.58-3.7 161.68-4.78 161.78-5.85 161.78-6.55L161.78-6.55 163.08-7Q163.53-5.25 163.98-3.98 164.43-2.7 165.41-2.05 166.38-1.4 168.38-1.4L168.38-1.4Q170.53-1.4 171.63-2.45 172.73-3.5 172.73-4.8L172.73-4.8Q172.73-5.75 172.16-6.65 171.58-7.55 170.38-8.2L170.38-8.2 164.98-11.2Q163.28-12.1 162.48-13.55 161.68-15 161.68-16.55L161.68-16.55Q161.68-18.15 162.51-19.63 163.33-21.1 164.93-22.05 166.53-23 168.83-23Z" opacity="1" transform="matrix(1,0,0,1,0,0)" fill="#000000" class="wordmark-text-0" data-fill-palette-color="primary" id="text-0"></path></svg></g></svg></g></svg></g></svg></g><g><svg viewBox="0 0 154.27908874478837 218.32049501854496" height="218.32049501854496" width="154.27908874478837"><g><svg xmlns="http://www.w3.org/2000/svg" xmlns:xlink="http://www.w3.org/1999/xlink" version="1.1" x="0" y="0" viewBox="0 0 211.999 300" style="enable-background:new 0 0 211.999 300;" xml:space="preserve" id="icon-0" width="154.27908874478837" height="218.32049501854496" class="icon-icon-0" data-fill-palette-color="accent"><g fill="#ffffff" data-fill-palette-color="accent"><path d="M198 292.001A5 5 0 0 1 193.423 295H18.424A5 5 0 0 1 13.851 292.001H10A12 12 0 0 1 8.612 291.914C9.507 296.52 13.558 300 18.425 300H193.424C198.284 300 202.33 296.533 203.233 291.937A12 12 0 0 1 202 292z" fill="#000000" data-fill-palette-color="accent"></path><path d="M13.427 128.948V10C13.427 7.242 15.668 5 18.424 5H193.423A5.004 5.004 0 0 1 198.424 10V79.809L201.487 78.996 201.739 78.93H202C202.483 78.93 202.957 78.967 203.425 79.023V10C203.425 4.477 198.948 0 193.425 0H18.425C12.902 0 8.425 4.477 8.425 10V130.036C8.852 129.979 9.285 129.941 9.726 129.932z" fill="#000000" data-fill-palette-color="accent"></path><path d="M53.732 105.275C56.565 102.682 62.444 99.531 68.805 96.558A25 25 0 0 1 65.509 92.996C61.571 87.771 59.906 81.324 60.814 74.844 61.727 68.365 65.105 62.629 70.331 58.694A24.6 24.6 0 0 1 76.635 55.254C86.675 51.567 98.191 54.963 104.635 63.516A24.3 24.3 0 0 1 109.405 81.021C118.71 78.131 129.54 75.23 134.982 75.432 145.644 75.828 130.295 58.819 125.409 45.514 120.522 32.211 121.21 9.309 113.341 16.514 105.472 23.717 74.113 35.239 74.113 35.239S42.752 46.756 32.091 46.357C21.43 45.961 36.778 62.97 41.665 76.275 46.551 89.578 45.863 112.479 53.732 105.275" fill="#000000" data-fill-palette-color="accent"></path><path d="M98.61 96.219C103.483 92.548 106.428 87.275 107.291 81.685 108.185 75.895 106.842 69.766 103.039 64.717 95.561 54.795 81.455 52.813 71.534 60.289 61.613 67.766 59.631 81.871 67.107 91.793A22.5 22.5 0 0 0 70.817 95.631C78.658 102.071 90.148 102.597 98.61 96.219" fill="#000000" data-fill-palette-color="accent"></path><path d="M109.402 90.318C105.39 93.44 104.175 98.902 105.137 104.489L105.145 104.586 105.155 104.583 111.776 102.824C112.934 100.753 113.573 99.22 113.583 99.195A10.2 10.2 0 0 1 115.394 96.233 9.92 9.92 0 0 1 122.898 92.835C124.156 92.835 125.39 93.068 126.567 93.535A9.9 9.9 0 0 1 131.411 97.609L139.932 95.345C129.423 84.153 116.316 84.938 109.402 90.318" fill="#000000" data-fill-palette-color="accent"></path><path d="M80.28 104.243A8 8 0 0 0 69.002 103.338C65.689 106.159 65.253 111.096 67.979 114.458L85.593 109.779C83.931 108.268 82.158 106.451 80.28 104.243" fill="#000000" data-fill-palette-color="accent"></path><path d="M120.371 100.542L129.374 98.15A7.94 7.94 0 0 0 125.834 95.393 8 8 0 0 0 117.328 97.098 7.95 7.95 0 0 0 115.464 99.882L115.461 99.881 115.455 99.897 115.456 99.898V99.897L115.457 99.898 115.456 99.899 115.455 99.898C115.399 100.047 115.036 100.899 114.415 102.123z" fill="#000000" data-fill-palette-color="accent"></path><path d="M203.424 81.043A10 10 0 0 0 202 80.93L198.424 81.88 141.455 97.012 132.293 99.446 130.353 99.962 120.965 102.455 113.095 104.546 110.283 105.293 105.59 106.539 105.362 106.6 89.85 110.721 87.424 111.365 69.441 116.142 67.282 116.715 13.427 131.02 10 131.93C9.463 131.93 8.939 131.985 8.425 132.066 3.652 132.822 0 136.943 0 141.93V280C0 284.986 3.652 289.107 8.425 289.864A10 10 0 0 0 10 290H202C202.485 290 202.958 289.954 203.424 289.887 208.271 289.195 211.999 285.038 211.999 280V90.93C211.999 85.892 208.271 81.735 203.424 81.043" fill="#000000" data-fill-palette-color="accent"></path></g></svg></g></svg></g></svg></g><defs></defs></svg><rect width="395.52" height="151.6281844350909" fill="none" stroke="none" visibility="hidden"></rect></g></svg></g></svg>